# AST/ASF file generated using VICON BodyLanguage
# -----------------------------------------------
:version 1.10
:name VICON
:units
  mass 1.0
  length 0.45
  angle deg
:documentation
   .ast/.asf automatically generated from VICON data using
   VICON BodyBuilder and BodyLanguage model FoxedUp or BRILLIANT.MOD
:root
   order TX TY TZ RX RY RZ
   axis XYZ
   position 0 0 0  
   orientation 0 0 0 
:bonedata
  begin
     id 1 
     name lhipjoint
     direction 0.630305 -0.712092 0.309259 
     length 2.29033 
     axis 0 0 0  XYZ
  end
  begin
     id 2 
     name lfemur
     direction 0.34202 -0.939693 0  
     length 6.43538  
     axis 0 0 20  XYZ
    dof rx ry rz
    limits (-160.0 20.0)
           (-70.0 70.0)
           (-60.0 70.0)
  end
  begin
     id 3 
     name ltibia
     direction 0.34202 -0.939693 0   
     length 7.43097   
     axis 0 0 20   XYZ
    dof rx
    limits (-10.0 170.0)
  end
  begin
     id 4 
     name lfoot
     direction 0.0334653 -0.0919451 0.995202   
     length 1.78438   
     axis -90 7.62852e-016 20   XYZ
    dof rx rz
    limits (-45.0 90.0)
           (-70.0 20.0)
  end
  begin
     id 5 
     name ltoes
     direction 1.53535e-011 -4.21933e-011 1   
     length 0.90832   
     axis -90 7.62852e-016 20   XYZ
    dof rx
    limits (-90.0 20.0)
  end
  begin
     id 6 
     name rhipjoint
     direction -0.682059 -0.67077 0.291312   
     length 2.43143  
     axis 0 0 0  XYZ 
  end
  begin
     id 7 
     name rfemur
     direction -0.34202 -0.939693 0   
     length 6.63488   
     axis 0 0 -20   XYZ
    dof rx ry rz
    limits (-160.0 20.0)
           (-70.0 70.0)
           (-70.0 60.0)
  end
  begin
     id 8 
     name rtibia
     direction -0.34202 -0.939693 0   
     length 6.86532   
     axis 0 0 -20   XYZ
    dof rx
    limits (-10.0 170.0)
 end
 begin
     id 9 
     name rfoot
     direction -0.105199 -0.289033 0.951521   
     length 1.77126  
     axis -90 -7.62852e-016 -20   XYZ
    dof rx rz
    limits (-45.0 90.0)
           (-20.0 70.0)
  end
  begin
     id 10 
     name rtoes
     direction -1.53551e-011 -4.21978e-011 1   
     length 0.889273   
     axis -90 -7.62852e-016 -20   XYZ
    dof rx
    limits (-90.0 20.0)
  end
  begin
     id 11 
     name lowerback
     direction -0.0514305 0.998089 0.034245   
     length 2.02077   
     axis 0 0 0   XYZ
    dof rx ry rz
    limits (-20.0 45.0)
           (-30.0 30.0)
           (-30.0 30.0)
  end
  begin
     id 12 
     name upperback
     direction 0.0203189 0.999449 -0.0262315   
     length 2.01413   
     axis 0 0 0   XYZ
    dof rx ry rz
    limits (-20.0 45.0)
           (-30.0 30.0)
           (-30.0 30.0)
  end
  begin
     id 13 
     name thorax
     direction 0.0452736 0.998142 -0.0407729   
     length 2.02986   
     axis 0 0 0   XYZ
    dof rx ry rz
    limits (-20.0 45.0)
           (-30.0 30.0)
           (-30.0 30.0)
  end
  begin
     id 14 
     name lowerneck
     direction -0.0180464 0.999645 -0.0195774   
     length 1.59034   
     axis 0 0 0   XYZ
    dof rx ry rz
    limits (-20.0 45.0)
           (-30.0 30.0)
           (-30.0 30.0)
  end
  begin
     id 15 
     name upperneck
     direction 0.0732272 0.979935 -0.18538   
     length 1.57486   
     axis 0 0 0   XYZ
    dof rx ry rz
    limits (-20.0 45.0)
           (-30.0 30.0)
           (-30.0 30.0)
  end
  begin
     id 16
     name head
     direction 0.0252963 0.997909 -0.059472  
     length 1.60334  
     axis 0 0 0   XYZ
    dof rx ry rz
    limits (-20.0 45.0)
           (-30.0 30.0)
           (-30.0 30.0)
  end
  begin
     id 17 
     name lclavicle
     direction 0.943819 0.330449 0.00315172  
     length 3.50322  
     axis 0 0 0   XYZ
    dof ry rz
    limits (-20.0 10.0)
           (0.0 20.0)
  end
  begin
     id 18 
     name lhumerus
     direction 1 -4.48949e-011 2.22502e-028   
     length 4.63208   
     axis 180 -30 -90   XYZ
    dof rx ry rz
    limits (-60.0 90.0)
           (-90.0 90.0)
           (-90.0 90.0)
  end
  begin
     id 19
     name lradius
     direction 1 -4.48967e-011 -4.10197e-027   
     length 3.41924   
     axis 180 -30 -90   XYZ
    dof rx
    limits (-10.0 170.0)
  end
  begin
     id 20
     name lwrist
     direction 1 -4.48987e-011 -1.24264e-027   
     length 1.70962   
     axis 2.50585e-015 90 90   XYZ
    dof ry
    limits (-180.0 0.0)
 end
  begin
     id 21 
     name lhand
     direction 1 -4.48983e-011 -2.48528e-027   
     length 0.62537   
     axis 1.58582e-015 90 90   XYZ
    dof rx rz
    limits (-90.0 90.0)
           (-45.0 45.0)
  end
  begin
     id 22 
     name lfingers
     direction 1 -4.48896e-011 -4.97056e-027   
     length 0.50419   
     axis 3.17164e-015 90 90   XYZ
    dof rx
    limits (0.0 90.0)
  end
  begin
     id 23
     name lthumb
     direction 0.707107 -6.34803e-011 0.707107   
     length 0.723919   
     axis -90 45 2.85299e-015   XYZ
    dof rx rz
    limits (-45.0 45.0)
           (-45.0 45.0)
  end
  begin
     id 24 
     name rclavicle
     direction -0.964499 0.260664 -0.0423695   
     length 3.91997  
     axis 0 0 0   XYZ 
    dof ry rz
    limits (-10.0 20.0)
           (-20.0 0.0)
  end
  begin
     id 25 
     name rhumerus
     direction -1 -4.48957e-011 -1.98656e-027  
     length 4.4064   
     axis 180 30 90   XYZ
    dof rx ry rz
    limits (-90.0 60.0)
           (-90.0 90.0)
           (-90.0 90.0)
  end
  begin
     id 26 
     name rradius
     direction -1 -4.48968e-011 1.96972e-027   
     length 3.44675   
     axis 180 30 90   XYZ
    dof rx
    limits (-10.0 170.0)
  end
  begin
     id 27 
     name rwrist
     direction -1 -4.48974e-011 -1.24264e-027   
     length 1.72338   
     axis 2.50585e-015 -90 -90   XYZ
    dof ry
    limits (-180.0 0.0)
  end
  begin
     id 28
     name rhand
     direction -1 -4.48901e-011 -2.48528e-027   
     length 0.513674   
     axis 1.58582e-015 -90 -90   XYZ
    dof rx rz
    limits (-90.0 90.0)
           (-45.0 45.0)
  end
  begin
     id 29
     name rfingers
     direction -1 -4.48946e-011 -4.97056e-027   
     length 0.414137   
     axis 3.17164e-015 -90 -90   XYZ
    dof rx
    limits (0.0 90.0)
  end
  begin
     id 30
     name rthumb
     direction -0.707107 -6.34859e-011 0.707107   
     length 0.59462   
     axis -90 -45 -2.85299e-015   XYZ
    dof rx rz
    limits (-45.0 45.0)
           (-45.0 45.0)
  end
:hierarchy
  begin
    root lhipjoint rhipjoint lowerback
    lhipjoint lfemur
    lfemur ltibia
    ltibia lfoot
    lfoot ltoes
    rhipjoint rfemur
    rfemur rtibia
    rtibia rfoot
    rfoot rtoes
    lowerback upperback
    upperback thorax
    thorax lowerneck lclavicle rclavicle
    lowerneck upperneck
    upperneck head
    lclavicle lhumerus
    lhumerus lradius
    lradius lwrist
    lwrist lhand lthumb
    lhand lfingers
    rclavicle rhumerus
    rhumerus rradius
    rradius rwrist
    rwrist rhand rthumb
    rhand rfingers
  end

#!OML:ASF E:\inclinewalkrobotboard\Project 1\Capture day 1\Session 1\subject1.ASF
:FULLY-SPECIFIED
:DEGREES
91
root 9.84654 12.7088 -8.65271 1.00107 3.1485 2.81117
lowerback 12.9844 1.37582 -5.52423
upperback 9.04209 1.28368 1.32544
thorax 2.12639 0.37035 4.35792
lowerneck -11.1889 1.11808 -1.12107
upperneck 32.7139 1.69356 0.818765
head 12.6973 0.736914 0.751771
rclavicle -5.96354e-016 -1.47101e-014
rhumerus 48.4649 24.8989 -11.8115
rradius 57.0932
rwrist 3.71786
rhand -25.831 -28.3105
rfingers 7.12502
rthumb 0.708959 -58.2891
lclavicle -5.96354e-016 -1.47101e-014
lhumerus 54.762 -23.8503 15.6949
lradius 51.1309
lwrist -19.7739
lhand -40.9601 -35.9662
lfingers 7.12502
lthumb -13.8931 -6.45024
rfemur -42.5394 -6.10464 14.0007
rtibia 0
rfoot 0 0
rtoes 0
lfemur -45.8088 -1.98843 -16.3238
ltibia 0
lfoot 0 0
ltoes 0
92
root 9.84454 12.7051 -8.65317 0.921051 3.12332 2.62492
lowerback 13.0367 1.36651 -5.36919
upperback 9.06448 1.28378 1.39414
thorax 2.1219 0.374806 4.34217
lowerneck -11.1968 1.11909 -1.1308
upperneck 32.7185 1.69785 0.816495
head 12.7008 0.737159 0.753301
rclavicle 5.96354e-016 -6.36111e-015
rhumerus 48.5374 24.8935 -11.8771
rradius 57.1259
rwrist 3.61885
rhand -25.9321 -28.5274
rfingers 7.12502
rthumb 0.611341 -58.5063
lclavicle 5.96354e-016 -6.36111e-015
lhumerus 54.7612 -23.8083 15.7846
lradius 51.0902
lwrist -19.6746
lhand -41.0986 -37.6691
lfingers 7.12502
lthumb -14.0266 -8.16234
rfemur -42.4806 -6.02433 14.226
rtibia 0
rfoot 0 0
rtoes 0
lfemur -45.7721 -1.89985 -16.0971
ltibia 0
lfoot 0 0
ltoes 0
93
root 9.84434 12.6997 -8.65188 0.839049 3.10399 2.63083
lowerback 13.0664 1.38819 -5.36329
upperback 9.11149 1.31223 1.39131
thorax 2.15326 0.38748 4.3327
lowerneck -11.1877 1.09222 -1.18777
upperneck 32.664 1.63575 0.929091
head 12.6747 0.717631 0.797277
rclavicle -6.75868e-015 5.56597e-015
rhumerus 48.4924 24.819 -12.0694
rradius 57.089
rwrist 3.59236
rhand -25.6647 -28.8986
rfingers 7.12502
rthumb 0.869597 -58.8766
lclavicle -6.75868e-015 5.56597e-015
lhumerus 54.8926 -23.9572 15.4987
lradius 51.1548
lwrist -20.0937
lhand -41.3737 -34.9336
lfingers 7.12502
lthumb -14.2917 -5.44548
rfemur -42.3833 -5.99863 14.2064
rtibia 0
rfoot 0 0
rtoes 0
lfemur -45.6822 -1.87355 -16.1076
ltibia 0
lfoot 0 0
ltoes 0
94
root 9.83909 12.7025 -8.66988 0.992296 3.03535 2.04414
lowerback 13.1318 1.38488 -4.80507
upperback 8.99893 1.3566 1.55668
thorax 1.99254 0.436186 4.1834
lowerneck -11.0323 1.078 -1.27111
upperneck 32.5361 1.6066 1.00974
head 12.5867 0.706213 0.83571
rclavicle -1.31198e-014 2.38542e-014
rhumerus 48.4985 24.792 -12.184
rradius 57.0357
rwrist 3.58943
rhand -25.442 -28.903
rfingers 7.12502
rthumb 1.08463 -58.88
lclavicle -1.31198e-014 2.38542e-014
lhumerus 54.9155 -23.9896 15.574
lradius 51.1413
lwrist -20.1844
lhand -41.308 -35.3943
lfingers 7.12502
lthumb -14.2284 -5.90163
rfemur -42.6575 -5.75415 14.9598
rtibia 0
rfoot 0 0
rtoes 0
lfemur -46.1183 -1.62922 -15.3941
ltibia 0
lfoot 0 0
ltoes 0
95
root 9.84428 12.696 -8.6731 0.72225 3.133 1.56095
lowerback 13.4265 1.29536 -4.18597
upperback 9.01549 1.28877 1.66819
thorax 1.86244 0.42871 3.95423
lowerneck -10.7716 1.08761 -1.2995
upperneck 32.3667 1.61583 1.02854
head 12.4603 0.710768 0.844332
rclavicle 1.86858e-014 0
rhumerus 48.7386 24.8515 -12.0254
rradius 56.9876
rwrist 3.45037
rhand -25.28 -28.7695
rfingers 7.12502
rthumb 1.24116 -58.7456
lclavicle 1.86858e-014 0
lhumerus 54.8256 -23.9632 15.8535
lradius 51.1183
lwrist -19.9299
lhand -41.1815 -38.1113
lfingers 7.12502
lthumb -14.1065 -8.61018
rfemur -42.2752 -5.78995 15.4456
rtibia 0
rfoot 0 0
rtoes 0
lfemur -45.9388 -1.71504 -14.8888
ltibia 0
lfoot 0 0
ltoes 0
96
root 9.84116 12.7013 -8.67097 0.976933 3.09676 2.27101
lowerback 13.1852 1.34694 -4.97031
upperback 8.95577 1.28704 1.4982
thorax 1.92554 0.398635 4.22226
lowerneck -10.6663 1.08147 -1.37796
upperneck 32.2338 1.59293 1.12112
head 12.3815 0.70368 0.887447
rclavicle 1.51076e-014 2.38542e-015
rhumerus 48.9537 24.8561 -11.9102
rradius 56.9442
rwrist 3.39466
rhand -25.2098 -28.7114
rfingers 7.12502
rthumb 1.30898 -58.6872
lclavicle 1.51076e-014 2.38542e-015
lhumerus 54.8017 -24.05 15.8316
lradius 51.0655
lwrist -20.2601
lhand -41.1591 -36.5916
lfingers 7.12502
lthumb -14.0849 -7.08896
rfemur -42.6413 -5.9094 14.6714
rtibia 0
rfoot 0 0
rtoes 0
lfemur -46.0546 -1.82619 -15.6724
ltibia 0
lfoot 0 0
ltoes 0
97
root 9.83988 12.706 -8.68504 1.21386 3.12776 2.81343
lowerback 13.168 1.38471 -5.51417
upperback 8.87726 1.28163 1.37464
thorax 1.85113 0.380225 4.40011
lowerneck -10.7422 1.02361 -1.50433
upperneck 32.2016 1.50828 1.22346
head 12.3831 0.664156 0.937587
rclavicle 5.76476e-015 -2.0276e-014
rhumerus 48.8455 24.7771 -12.198
rradius 56.895
rwrist 3.47526
rhand -25.552 -28.4002
rfingers 7.12502
rthumb 0.978471 -58.3777
lclavicle 5.76476e-015 -2.0276e-014
lhumerus 54.8951 -24.0889 15.778
lradius 51.0615
lwrist -20.304
lhand -41.2536 -36.1198
lfingers 7.12502
lthumb -14.176 -6.62348
rfemur -43.0351 -6.06041 14.0888
rtibia 0
rfoot 0 0
rtoes 0
lfemur -46.3114 -1.96475 -16.2721
ltibia 0
lfoot 0 0
ltoes 0
98
root 9.84076 12.7087 -8.69219 1.36249 3.14518 3.16392
lowerback 13.1438 1.41194 -5.83118
upperback 8.80911 1.28547 1.28793
thorax 1.79107 0.374765 4.48734
lowerneck -10.7103 0.9658 -1.53136
upperneck 32.1654 1.43089 1.22379
head 12.3627 0.627267 0.931387
rclavicle 8.15017e-015 1.59028e-015
rhumerus 48.7363 24.7451 -12.43
rradius 56.8829
rwrist 3.43371
rhand -25.7916 -28.1017
rfingers 7.12502
rthumb 0.746995 -58.0801
lclavicle 8.15017e-015 1.59028e-015
lhumerus 55.0072 -24.1582 15.7072
lradius 51.1255
lwrist -20.1015
lhand -41.4211 -36.4991
lfingers 7.12502
lthumb -14.3374 -7.01419
rfemur -43.2518 -6.16529 13.693
rtibia 0
rfoot 0 0
rtoes 0
lfemur -46.4237 -2.07429 -16.6663
ltibia 0
lfoot 0 0
ltoes 0
99
root 9.8406 12.6984 -8.69069 0.967211 3.15297 1.9161
lowerback 13.4257 1.33464 -4.538
upperback 8.87273 1.30224 1.61943
thorax 1.70729 0.42867 4.09901
lowerneck -10.5612 0.935175 -1.56324
upperneck 32.0865 1.37759 1.26697
head 12.299 0.606051 0.943828
rclavicle -1.98785e-015 7.95139e-016
rhumerus 48.7489 24.7889 -12.4422
rradius 56.9144
rwrist 3.34553
rhand -25.8478 -28.0142
rfingers 7.12502
rthumb 0.692762 -57.9928
lclavicle -1.98785e-015 7.95139e-016
lhumerus 55.0429 -24.2373 15.7221
lradius 51.1893
lwrist -19.8789
lhand -41.5342 -37.1926
lfingers 7.12502
lthumb -14.4464 -7.7154
rfemur -42.6954 -5.87585 15.0915
rtibia 0
rfoot 0 0
rtoes 0
lfemur -46.232 -1.83069 -15.2504
ltibia 0
lfoot 0 0
ltoes 0
100
root 9.87609 12.7211 -8.69338 1.72151 3.52883 4.79858
lowerback 12.9724 1.30868 -6.94591
upperback 8.65199 1.04684 0.804464
thorax 1.75207 0.228549 4.63646
lowerneck -10.3663 0.887072 -1.63374
upperneck 31.9237 1.30494 1.31742
head 12.1916 0.573176 0.961798
rclavicle 1.35174e-014 0
rhumerus 48.7547 24.8208 -12.4542
rradius 56.9191
rwrist 3.22026
rhand -26.0517 -27.952
rfingers 7.12502
rthumb 0.495772 -57.9312
lclavicle 1.35174e-014 0
lhumerus 55.1162 -24.3429 15.6785
lradius 51.2284
lwrist -19.7458
lhand -41.6593 -37.0655
lfingers 7.12502
lthumb -14.567 -7.59697
rfemur -43.4461 -7.20688 11.573
rtibia 0
rfoot 0 0
rtoes 0
lfemur -46.3462 -3.09526 -18.7199
ltibia 0
lfoot 0 0
ltoes 0
101
root 9.8413 12.6927 -8.68458 0.943935 3.1892 1.79428
lowerback 13.3342 1.34157 -4.36015
upperback 8.8799 1.3341 1.68048
thorax 1.76052 0.449033 4.06002
lowerneck -10.264 0.806331 -1.65982
upperneck 31.754 1.19431 1.3119
head 12.1031 0.521693 0.946832
rclavicle -1.33186e-014 -1.15295e-014
rhumerus 48.7322 24.781 -12.4087
rradius 56.9248
rwrist 3.18521
rhand -26.3169 -28.0281
rfingers 7.12502
rthumb 0.239663 -58.0077
lclavicle -1.33186e-014 -1.15295e-014
lhumerus 55.2641 -24.418 15.5207
lradius 51.2658
lwrist -19.7173
lhand -41.8481 -36.192
lfingers 7.12502
lthumb -14.7488 -6.73674
rfemur -42.6095 -5.91284 15.2092
rtibia 0
rfoot 0 0
rtoes 0
lfemur -46.2156 -1.84927 -15.1162
ltibia 0
lfoot 0 0
ltoes 0
102
root 9.83469 12.6999 -8.68672 1.31621 3.05808 2.83696
lowerback 13.0272 1.48052 -5.51678
upperback 8.81194 1.41389 1.4164
thorax 1.84001 0.447144 4.43123
lowerneck -10.2895 0.729362 -1.64493
upperneck 31.6867 1.06672 1.35422
head 12.0832 0.472353 0.942975
rclavicle -4.37326e-015 -1.15295e-014
rhumerus 48.6933 24.7155 -12.4129
rradius 56.9359
rwrist 3.34199
rhand -26.5009 -28.1213
rfingers 7.12502
rthumb 0.0619863 -58.101
lclavicle -4.37326e-015 -1.15295e-014
lhumerus 55.3327 -24.4234 15.444
lradius 51.3309
lwrist -19.762
lhand -41.9087 -35.7125
lfingers 7.12502
lthumb -14.8072 -6.2615
rfemur -43.2227 -5.99816 14.0976
rtibia 0
rfoot 0 0
rtoes 0
lfemur -46.4174 -1.88744 -16.2539
ltibia 0
lfoot 0 0
ltoes 0
103
root 9.84406 12.6991 -8.68396 1.29839 3.24614 3.24406
lowerback 12.9898 1.3973 -5.75211
upperback 8.8742 1.2858 1.27822
thorax 1.94336 0.372589 4.43499
lowerneck -10.2807 0.700445 -1.60668
upperneck 31.5846 1.02536 1.32021
head 12.0414 0.45446 0.916734
rclavicle 1.78906e-015 6.75868e-015
rhumerus 48.7552 24.6372 -12.4586
rradius 56.9393
rwrist 3.54193
rhand -26.6426 -27.9299
rfingers 7.12502
rthumb -0.0748785 -57.9097
lclavicle 1.78906e-015 6.75868e-015
lhumerus 55.2819 -24.3603 15.4482
lradius 51.3756
lwrist -19.8452
lhand -41.9729 -35.7378
lfingers 7.12502
lthumb -14.869 -6.29132
rfemur -43.0999 -6.36411 13.5362
rtibia 0
rfoot 0 0
rtoes 0
lfemur -46.2839 -2.27224 -16.7881
ltibia 0
lfoot 0 0
ltoes 0
104
root 9.847 12.6991 -8.69509 1.31089 3.30273 3.33708
lowerback 13.1326 1.34299 -5.79066
upperback 8.84317 1.20118 1.24576
thorax 1.84445 0.33324 4.43034
lowerneck -10.1491 0.698343 -1.58645
upperneck 31.3933 1.04416 1.22205
head 11.9375 0.453747 0.875432
rclavicle 5.36719e-015 -8.34896e-015
rhumerus 48.7234 24.6492 -12.6638
rradius 57.0141
rwrist 3.71761
rhand -26.8395 -27.7736
rfingers 7.12502
rthumb -0.265074 -57.7531
lclavicle 5.36719e-015 -8.34896e-015
lhumerus 55.1532 -24.3205 15.5124
lradius 51.3914
lwrist -19.9404
lhand -41.9532 -35.8652
lfingers 7.12502
lthumb -14.8501 -6.41734
rfemur -43.1643 -6.44884 13.4216
rtibia 0
rfoot 0 0
rtoes 0
lfemur -46.3545 -2.36984 -16.9108
ltibia 0
lfoot 0 0
ltoes 0
105
root 9.84628 12.6969 -8.69203 1.25695 3.32025 3.3452
lowerback 13.1826 1.3371 -5.79317
upperback 8.82587 1.18973 1.23998
thorax 1.80065 0.329332 4.42623
lowerneck -10.0113 0.669819 -1.58847
upperneck 31.2349 0.988824 1.25916
head 11.8461 0.434115 0.879719
rclavicle 5.1684e-015 1.23246e-014
rhumerus 48.5513 24.6916 -12.9697
rradius 57.0826
rwrist 3.72901
rhand -26.6947 -27.7853
rfingers 7.12502
rthumb -0.125188 -57.765
lclavicle 5.1684e-015 1.23246e-014
lhumerus 55.1268 -24.373 15.5115
lradius 51.4366
lwrist -20.0298
lhand -41.8214 -35.736
lfingers 7.12502
lthumb -14.7231 -6.2788
rfemur -43.0806 -6.45819 13.4029
rtibia 0
rfoot 0 0
rtoes 0
lfemur -46.2748 -2.38783 -16.9267
ltibia 0
lfoot 0 0
ltoes 0
